<svg xmlns="http://www.w3.org/2000/svg" xmlns:xlink="http://www.w3.org/1999/xlink" width="1440" height="507" version="1.1" viewBox="0 0 1440 507"><title>Back</title><desc>Created with Sketch.</desc><g id="RDB-Web-Design" fill="none" fill-rule="evenodd" stroke="none" stroke-width="1"><g id="React-day-Berlin-2018-web" transform="translate(0.000000, -289.000000)"><g id="1-Screen" transform="translate(-12.000000, -4.000000)"><g id="Visual" transform="translate(12.000000, 0.000000)"><g id="Back" transform="translate(0.000000, 292.000000)"><path id="Buildings-Back" fill="#1703C4" d="M925.860494,1.45302353 L936.011435,1.45302353 L936.011435,77.1536118 L936.011435,139.853965 L957.008965,139.853965 L957.008965,162.029965 L978.009671,162.029965 L978.009671,192.6162 L994.810024,192.6162 L994.810024,178.088082 L1047.30861,178.088082 L1047.30861,263.728906 L1089.30791,263.728906 L1089.30791,375.307729 L1099.8072,375.307729 L1099.8072,321.050435 L1128.15614,321.050435 L1128.15614,347.270082 L1148.63061,347.270082 L1148.63061,207.908788 L1164.90579,207.908788 L1164.90579,198.733024 L1182.75544,198.733024 L1182.75544,136.032671 L1186.95473,136.032671 L1186.95473,198.733024 L1204.80544,198.733024 L1204.80544,207.908788 L1220.55438,207.908788 L1220.55438,228.554788 L1253.10473,228.554788 L1253.10473,247.671847 L1280.40438,247.671847 L1280.40438,375.307729 L1289.85332,375.307729 L1289.85332,298.901965 L1351.80191,298.901965 L1351.80191,331.657729 L1377.00191,331.657729 L1377.00191,298.901965 L1439.99979,298.901965 L1439.99979,507.473024 L133.411553,507.473024 L133.411553,157.4802 L175.415082,157.4802 L175.415082,132.123494 L229.535788,132.123494 L229.535788,167.895847 L275.577671,167.895847 L275.577671,176.831259 L290.117435,176.831259 L290.117435,207.703376 L341.933082,207.703376 L372.704612,123.381847 L403.475082,207.703376 L448.338494,207.703376 L448.338494,291.071965 L510.582494,291.071965 L510.582494,207.703376 L587.646847,207.703376 L587.646847,290.648435 L573.003318,290.648435 L573.003318,372.621494 L615.529906,372.621494 L615.529906,334.757965 L772.940965,334.757965 L772.940965,284.030788 L911.860729,284.030788 L911.860729,77.1536118 L925.860494,77.1536118 L925.860494,1.45302353 Z M54.9675529,175.207553 L94.0413176,175.207553 L94.0413176,207.702847 L118.588024,207.702847 L118.588024,507.472494 L62.9150824,507.472494 L40.7295529,507.472494 L37.0861412,507.472494 L18.5429647,507.472494 L-0.000211764706,507.472494 L-0.000211764706,420.553906 L18.5429647,420.553906 L18.5429647,310.878847 L33.1123765,310.878847 L33.1123765,296.255435 L40.7295529,296.255435 L40.7295529,207.702847 L54.9675529,207.702847 L54.9675529,175.207553 Z"/><g id="Lines-Back" stroke="#5F76FF" stroke-linecap="round" stroke-linejoin="round" transform="translate(45.529412, 0.531529)"><path id="Stroke-3" stroke-width=".788" d="M880.330871,138.920929 C880.724753,114.699282 880.724753,90.3463412 880.330871,65.6641059"/><path id="Stroke-5" stroke-width=".788" d="M533.334494,212.111047 L533.334494,244.051518"/><path id="Stroke-7" stroke-width=".788" d="M525.922729,212.111047 L525.922729,234.522106"/><path id="Stroke-9" stroke-width=".716" d="M518.510965,212.111047 L518.510965,224.919635"/><path id="Stroke-11" stroke-width=".788" d="M216.406059,176.300259 L216.406059,203.312965"/><path id="Stroke-13" stroke-width=".788" d="M204.666035,176.300259 L204.666035,194.815906"/><path id="Stroke-15" stroke-width=".788" d="M192.843106,176.300259 L192.843106,188.110376"/><path id="Stroke-17" stroke-width=".788" d="M64.8330353,214.935988 L64.8330353,274.227988"/><path id="Stroke-19" stroke-width=".788" d="M56.3624471,214.935988 L56.3624471,262.580929"/><path id="Stroke-21" stroke-width=".788" d="M286.460153,207.171635 L368.045682,207.171635"/><path id="Stroke-23" stroke-width=".788" d="M357.9462,207.171635 L357.9462,368.659165"/><path id="Stroke-25" stroke-width=".788" d="M296.4042,207.171635 L296.4042,290.117753"/><path id="Stroke-27" stroke-width=".788" d="M890.239765,157.664329 C890.254588,175.052329 890.254588,193.052329 890.239765,209.479976"/><path id="Stroke-29" stroke-width=".788" d="M911.480294,155.9934 L911.480294,224.463282"/><path id="Stroke-31" stroke-width=".788" d="M932.163565,173.994459 L932.163565,241.095282"/><path id="Stroke-33" stroke-width=".788" d="M949.280506,186.699282 L949.280506,253.981165"/><path id="Stroke-35" stroke-width=".788" d="M1159.27602,228.023471 L1159.27602,326.228294"/><path id="Stroke-37" stroke-width=".788" d="M1207.54864,259.616435 L1207.54864,342.119965"/><polyline id="Stroke-39" stroke-width=".788" points="1306.273 335.993 1306.273 341.111 1306.273 374.777"/><path id="Stroke-41" stroke-width=".788" d="M175.548388,167.364424 L175.548388,257.784776"/><path id="Stroke-43" stroke-width=".788" d="M167.254518,167.364424 L167.254518,233.9316"/><path id="Stroke-45" stroke-width=".788" d="M159.049694,167.364424 L159.049694,216.434541"/><path id="Stroke-47" stroke-width=".788" d="M150.842753,167.364424 L150.842753,203.312541"/><polyline id="Stroke-49" stroke-width=".788" points="466.372 207.172 542.117 207.172 542.117 290.118"/><polyline id="Stroke-51" stroke-width=".788" points="368.045 207.172 402.81 207.172 402.81 250.229"/><path id="Stroke-53" stroke-width=".788" d="M402.809718,263.639753 L402.809718,271.051518"/><path id="Stroke-55" stroke-width=".788" d="M347.267965,177.575188 C350.316318,186.1686 353.234435,194.811776 356.537965,203.313071"/><path id="Stroke-57" stroke-width=".788" d="M341.480647,162.052729 C342.465353,164.526141 343.417235,167.013318 344.344765,169.507906"/><path id="Stroke-59" stroke-width=".788" d="M327.1752,122.850424 C331.195553,133.758424 335.430847,144.346659 338.792612,154.683953"/><polyline id="Stroke-61" stroke-width=".788" points="244.588 192.346 244.588 176.301 230.049 176.301 230.049 167.364 189.667 167.364"/><polyline id="Stroke-63" stroke-width=".788" points="184.006 267.346 184.006 131.592 133.196 131.592"/><path id="Stroke-65" stroke-width=".788" d="M167.254518,156.948882 L94.3725176,157.052647"/><polyline id="Stroke-67" stroke-width=".788" points="284.607 207.172 296.405 207.172 305.887 181.185"/><polyline id="Stroke-69" stroke-width=".788" points="73.059 222.699 73.059 207.172 58.725 207.172"/><polyline id="Stroke-71" stroke-width=".788" points="48.511 250.229 48.511 174.676 13.765 174.676"/><path id="Stroke-73" stroke-width=".788" d="M9.43814118,207.171635 L0.137435294,207.171635"/><path id="Stroke-75" stroke-width=".788" d="M73.0586118,233.931706 L73.0586118,281.640176"/><polyline id="Stroke-77" stroke-width=".788" points="527.474 290.118 527.474 372.091 570 372.091 570 339.407"/><path id="Stroke-79" stroke-width=".788" d="M866.331424,237.308824 L866.331424,224.463176"/><path id="Stroke-81" stroke-width=".788" d="M759.537106,283.498941 C794.960047,283.052118 830.960047,283.052118 865.901224,283.052118 C865.901224,271.405059 865.901224,258.699176 866.331106,246.820235"/><path id="Stroke-83" stroke-width=".788" d="M866.331424,213.875047 L866.331424,196.622576"/><path id="Stroke-85" stroke-width=".788" d="M866.331424,178.773671 L866.331424,163.1232"/><polyline id="Stroke-87" stroke-width=".788" points="866.331 128.629 866.331 76.622 876.49 76.622"/><path id="Stroke-89" stroke-width=".788" d="M880.330871,55.3917176 C880.724753,37.4054824 880.724753,19.4054824 880.330871,0.9216 C882.814871,0.952305882 880.330871,2.08312941 880.330871,0.9216 C882.814871,0.952305882 885.298871,0.983011765 887.783929,1.01477647"/><polyline id="Stroke-91" stroke-width=".788" points="900.843 139.358 894.487 139.336 890.482 139.323"/><path id="Stroke-93" stroke-width=".788" d="M911.480294,161.498435 L927.312882,161.498435"/><polyline id="Stroke-95" stroke-width=".788" points="932.48 192.084 949.28 192.084 949.28 177.556 990.49 177.556"/><polyline id="Stroke-97" stroke-width=".788" points="1008.137 262.81 1026.843 262.81 1043.048 262.81"/><polyline id="Stroke-99" stroke-width=".788" points="1103.102 211.582 1103.102 207.377 1116.578 207.377"/><path id="Stroke-101" stroke-width=".788" d="M1137.22581,152.863518 L1137.22581,138.833047 C1137.22581,134.884694 1137.07864,135.500929 1141.42616,135.500929"/><path id="Stroke-103" stroke-width=".788" d="M1137.22581,178.228694 L1137.22581,158.069753"/><polyline id="Stroke-105" stroke-width=".788" points="1119.377 291.169 1119.377 198.201 1137.225 198.201 1137.225 183.169"/><path id="Stroke-107" stroke-width=".788" d="M1145.16604,198.2016 L1159.27592,198.2016"/><path id="Stroke-109" stroke-width=".788" d="M1163.96015,207.377365 L1169.78368,207.377365"/><polyline id="Stroke-111" stroke-width=".788" points="1203.666 228.023 1189.347 228.023 1175.025 228.023"/><path id="Stroke-113" stroke-width=".788" d="M1208.16604,247.140106 L1229.60721,247.140106"/><polyline id="Stroke-115" stroke-width=".788" points="1240.725 374.777 1244.324 374.777 1244.324 298.371 1288.107 298.371"/><path id="Stroke-117" stroke-width=".788" d="M1296.31309,298.371071 L1306.27239,298.371071"/><polyline id="Stroke-119" stroke-width=".788" points="1321.902 331.126 1331.472 331.126 1331.472 298.371 1342.107 298.371"/><path id="Stroke-121" stroke-width=".788" d="M1373.60721,298.371071 L1389.75427,298.371071"/><polyline id="Stroke-123" stroke-width=".788" points="1054.278 340.78 1054.278 320.518 1070.153 320.518"/><polyline id="Stroke-125" stroke-width=".788" points="1047.314 374.777 1054.278 374.777 1054.278 351.004"/><polyline id="Stroke-127" stroke-width=".788" points="460.372 290.541 465.053 290.541 453.666 290.541"/><path id="Stroke-129" stroke-width=".788" d="M230.048788,176.300259 L230.048788,216.433906"/><path id="Stroke-131" stroke-width=".788" d="M542.117435,290.117647 L493.195553,290.117647"/><path id="Stroke-133" stroke-width=".788" d="M528.040376,372.0906 L511.195553,372.0906"/><path id="Stroke-135" stroke-width=".788" d="M890.239765,94.0263882 C890.254588,111.522388 890.254588,129.522388 890.239765,147.315918"/></g></g></g></g></g></g></svg>