<svg xmlns="http://www.w3.org/2000/svg" xmlns:xlink="http://www.w3.org/1999/xlink" width="72" height="92" version="1.1" viewBox="0 0 72 92"><title>Group 20</title><desc>Created with Sketch.</desc><g id="RDB-Web-Design" fill="none" fill-rule="evenodd" stroke="none" stroke-width="1"><g id="React-day-Berlin-2018-mob" transform="translate(-228.000000, -109.000000)"><g id="Group-20" transform="translate(228.000000, 109.000000)"><g id="Group-7" fill="#2700C3" transform="translate(0.000000, 20.000000)"><rect id="Rectangle" width="2" height="2" x="70" y="40"/><rect id="Rectangle" width="2" height="2" x="60" y="40"/><rect id="Rectangle" width="2" height="2" x="70" y="50"/><rect id="Rectangle" width="2" height="2" x="60" y="50"/><rect id="Rectangle" width="2" height="2" x="70" y="20"/><rect id="Rectangle" width="2" height="2" x="60" y="20"/><rect id="Rectangle" width="2" height="2" x="70" y="30"/><rect id="Rectangle" width="2" height="2" x="60" y="30"/><rect id="Rectangle" width="2" height="2" x="70" y="60"/><rect id="Rectangle" width="2" height="2" x="60" y="60"/><rect id="Rectangle" width="2" height="2" x="70" y="70"/><rect id="Rectangle" width="2" height="2" x="60" y="70"/><rect id="Rectangle" width="2" height="2" x="50" y="40"/><rect id="Rectangle" width="2" height="2" x="40" y="40"/><rect id="Rectangle" width="2" height="2" x="50" y="50"/><rect id="Rectangle" width="2" height="2" x="40" y="50"/><rect id="Rectangle" width="2" height="2" x="50" y="60"/><rect id="Rectangle" width="2" height="2" x="40" y="60"/><rect id="Rectangle" width="2" height="2" x="50" y="70"/><rect id="Rectangle" width="2" height="2" x="40" y="70"/><rect id="Rectangle" width="2" height="2" x="50" y="0"/><rect id="Rectangle" width="2" height="2" x="40" y="0"/><rect id="Rectangle" width="2" height="2" x="50" y="10"/><rect id="Rectangle" width="2" height="2" x="40" y="10"/><rect id="Rectangle" width="2" height="2" x="50" y="20"/><rect id="Rectangle" width="2" height="2" x="40" y="20"/><rect id="Rectangle" width="2" height="2" x="50" y="30"/><rect id="Rectangle" width="2" height="2" x="40" y="30"/><rect id="Rectangle" width="2" height="2" x="30" y="40"/><rect id="Rectangle" width="2" height="2" x="20" y="40"/><rect id="Rectangle" width="2" height="2" x="30" y="50"/><rect id="Rectangle" width="2" height="2" x="20" y="50"/><rect id="Rectangle" width="2" height="2" x="30" y="60"/><rect id="Rectangle" width="2" height="2" x="20" y="60"/><rect id="Rectangle" width="2" height="2" x="30" y="70"/><rect id="Rectangle" width="2" height="2" x="20" y="70"/><rect id="Rectangle" width="2" height="2" x="30" y="0"/><rect id="Rectangle" width="2" height="2" x="20" y="0"/><rect id="Rectangle" width="2" height="2" x="30" y="10"/><rect id="Rectangle" width="2" height="2" x="20" y="10"/><rect id="Rectangle" width="2" height="2" x="30" y="20"/><rect id="Rectangle" width="2" height="2" x="20" y="20"/><rect id="Rectangle" width="2" height="2" x="30" y="30"/><rect id="Rectangle" width="2" height="2" x="20" y="30"/><rect id="Rectangle" width="2" height="2" x="10" y="40"/><rect id="Rectangle" width="2" height="2" x="0" y="40"/><rect id="Rectangle" width="2" height="2" x="10" y="50"/><rect id="Rectangle" width="2" height="2" x="0" y="50"/><rect id="Rectangle" width="2" height="2" x="10" y="60"/><rect id="Rectangle" width="2" height="2" x="0" y="60"/><rect id="Rectangle" width="2" height="2" x="10" y="70"/><rect id="Rectangle" width="2" height="2" x="0" y="70"/><rect id="Rectangle" width="2" height="2" x="10" y="0"/><rect id="Rectangle" width="2" height="2" x="0" y="0"/><rect id="Rectangle" width="2" height="2" x="10" y="10"/><rect id="Rectangle" width="2" height="2" x="0" y="10"/><rect id="Rectangle" width="2" height="2" x="10" y="20"/><rect id="Rectangle" width="2" height="2" x="0" y="20"/><rect id="Rectangle" width="2" height="2" x="10" y="30"/><rect id="Rectangle" width="2" height="2" x="0" y="30"/></g><g id="Group-9" fill="#FFF" transform="translate(60.000000, 0.000000)"><rect id="Rectangle" width="2" height="2" x="10" y="0"/><rect id="Rectangle" width="2" height="2" x="0" y="0"/><rect id="Rectangle" width="2" height="2" x="10" y="10"/><rect id="Rectangle" width="2" height="2" x="0" y="10"/><rect id="Rectangle" width="2" height="2" x="10" y="20"/><rect id="Rectangle" width="2" height="2" x="0" y="20"/><rect id="Rectangle" width="2" height="2" x="10" y="30"/><rect id="Rectangle" width="2" height="2" x="0" y="30"/><rect id="Rectangle" width="2" height="2" x="10" y="40"/><rect id="Rectangle" width="2" height="2" x="0" y="40"/><rect id="Rectangle" width="2" height="2" x="10" y="50"/><rect id="Rectangle" width="2" height="2" x="0" y="50"/><rect id="Rectangle" width="2" height="2" x="10" y="60"/><rect id="Rectangle" width="2" height="2" x="0" y="60"/></g></g></g></g></svg>