<svg xmlns="http://www.w3.org/2000/svg" xmlns:xlink="http://www.w3.org/1999/xlink" width="63" height="63" version="1.1" viewBox="0 0 63 63"><title>Group 36</title><desc>Created with Sketch.</desc><g id="RDB-Web-Design" fill="none" fill-rule="evenodd" stroke="none" stroke-width="1"><g id="React-day-Berlin-2018-web" fill="#0024FF" transform="translate(-1208.000000, -5523.000000)"><g id="Group-59" transform="translate(1.000000, 4949.000000)"><g id="Group-36" transform="translate(1207.000000, 574.000000)"><rect id="Rectangle" width="3" height="3" x="60" y="0" transform="translate(61.500000, 1.500000) scale(-1, 1) translate(-61.500000, -1.500000)"/><rect id="Rectangle" width="3" height="3" x="40" y="0" transform="translate(41.500000, 1.500000) scale(-1, 1) translate(-41.500000, -1.500000)"/><rect id="Rectangle" width="3" height="3" x="20" y="0" transform="translate(21.500000, 1.500000) scale(-1, 1) translate(-21.500000, -1.500000)"/><rect id="Rectangle" width="3" height="3" x="0" y="0" transform="translate(1.500000, 1.500000) scale(-1, 1) translate(-1.500000, -1.500000)"/><rect id="Rectangle" width="3" height="3" x="60" y="20" transform="translate(61.500000, 21.500000) scale(-1, 1) translate(-61.500000, -21.500000)"/><rect id="Rectangle" width="3" height="3" x="40" y="20" transform="translate(41.500000, 21.500000) scale(-1, 1) translate(-41.500000, -21.500000)"/><rect id="Rectangle" width="3" height="3" x="20" y="20" transform="translate(21.500000, 21.500000) scale(-1, 1) translate(-21.500000, -21.500000)"/><rect id="Rectangle" width="3" height="3" x="0" y="20" transform="translate(1.500000, 21.500000) scale(-1, 1) translate(-1.500000, -21.500000)"/><rect id="Rectangle" width="3" height="3" x="60" y="40" transform="translate(61.500000, 41.500000) scale(-1, 1) translate(-61.500000, -41.500000)"/><rect id="Rectangle" width="3" height="3" x="40" y="40" transform="translate(41.500000, 41.500000) scale(-1, 1) translate(-41.500000, -41.500000)"/><rect id="Rectangle" width="3" height="3" x="20" y="40" transform="translate(21.500000, 41.500000) scale(-1, 1) translate(-21.500000, -41.500000)"/><rect id="Rectangle" width="3" height="3" x="0" y="40" transform="translate(1.500000, 41.500000) scale(-1, 1) translate(-1.500000, -41.500000)"/><rect id="Rectangle" width="3" height="3" x="60" y="60" transform="translate(61.500000, 61.500000) scale(-1, 1) translate(-61.500000, -61.500000)"/><rect id="Rectangle" width="3" height="3" x="40" y="60" transform="translate(41.500000, 61.500000) scale(-1, 1) translate(-41.500000, -61.500000)"/><rect id="Rectangle" width="3" height="3" x="20" y="60" transform="translate(21.500000, 61.500000) scale(-1, 1) translate(-21.500000, -61.500000)"/><rect id="Rectangle" width="3" height="3" x="0" y="60" transform="translate(1.500000, 61.500000) scale(-1, 1) translate(-1.500000, -61.500000)"/></g></g></g></g></svg>