<svg xmlns="http://www.w3.org/2000/svg" xmlns:xlink="http://www.w3.org/1999/xlink" width="82" height="75" version="1.1" viewBox="0 0 82 75"><title>Group 18</title><desc>Created with Sketch.</desc><g id="RDB-Web-Design" fill="none" fill-rule="evenodd" stroke="none" stroke-width="1"><g id="React-day-Berlin-2018-web" transform="translate(-140.000000, -1020.000000)"><g id="2-screen" transform="translate(-177.000000, 790.000000)"><g id="React-Day-Berlin-+-Fully-Packed-Day-of-Mask" transform="translate(177.000000, 0.000000)"><g id="Group-18" transform="translate(180.567416, 267.500000) scale(-1, 1) translate(-180.567416, -267.500000) translate(140.000000, 230.000000)"><rect id="Rectangle" width="2.933" height="2.711" x="0" y="54.217" fill="#FFF"/><rect id="Rectangle" width="2.933" height="2.711" x="19.551" y="54.217" fill="#FFF"/><polygon id="Rectangle" fill="#FFF" points="0 72.289 2.933 72.289 2.933 75 0 75"/><polygon id="Rectangle" fill="#FFF" points="19.551 72.289 22.483 72.289 22.483 75 19.551 75"/><rect id="Rectangle" width="2.933" height="2.711" x="39.101" y="0" fill="#2700C3"/><rect id="Rectangle" width="2.933" height="2.711" x="19.551" y="0" fill="#2700C3"/><rect id="Rectangle" width="2.933" height="2.711" x="39.101" y="18.072" fill="#2700C3"/><rect id="Rectangle" width="2.933" height="2.711" x="19.551" y="18.072" fill="#2700C3"/><polygon id="Rectangle" fill="#2700C3" points="58.652 36.145 61.584 36.145 61.584 38.855 58.652 38.855"/><polygon id="Rectangle" fill="#2700C3" points="78.202 36.145 81.135 36.145 81.135 38.855 78.202 38.855"/><rect id="Rectangle" width="2.933" height="2.711" x="58.652" y="54.217" fill="#2700C3"/><rect id="Rectangle" width="2.933" height="2.711" x="78.202" y="54.217" fill="#2700C3"/><rect id="Rectangle" width="2.933" height="2.711" x="78.202" y="0" fill="#2700C3"/><rect id="Rectangle" width="2.933" height="2.711" x="58.652" y="0" fill="#2700C3"/><rect id="Rectangle" width="2.933" height="2.711" x="78.202" y="18.072" fill="#2700C3"/><rect id="Rectangle" width="2.933" height="2.711" x="58.652" y="18.072" fill="#2700C3"/><polygon id="Rectangle" fill="#2700C3" points="39.101 36.145 42.034 36.145 42.034 38.855 39.101 38.855"/><rect id="Rectangle" width="2.933" height="2.711" x="39.101" y="54.217" fill="#2700C3"/><polygon id="Rectangle" fill="#2700C3" points="19.551 36.145 22.483 36.145 22.483 38.855 19.551 38.855"/></g></g></g></g></g></svg>