<svg xmlns="http://www.w3.org/2000/svg" xmlns:xlink="http://www.w3.org/1999/xlink" width="163" height="63" version="1.1" viewBox="0 0 163 63"><g id="RDB-Web-Design" fill="none" fill-rule="evenodd" stroke="none" stroke-width="1"><g id="React-day-Berlin-2018-web" transform="translate(-1262.000000, -811.000000)"><g id="dots" transform="translate(1262.000000, 811.000000)"><rect id="Rectangle" width="3" height="3" x="0" y="20" fill="#230CEA"/><rect id="Rectangle" width="3" height="3" x="20" y="20" fill="#230CEA"/><rect id="Rectangle" width="3" height="3" x="0" y="0" fill="#230CEA"/><rect id="Rectangle" width="3" height="3" x="20" y="0" fill="#230CEA"/><rect id="Rectangle" width="3" height="3" x="0" y="40" fill="#230CEA"/><rect id="Rectangle" width="3" height="3" x="20" y="40" fill="#230CEA"/><rect id="Rectangle" width="3" height="3" x="0" y="60" fill="#230CEA"/><rect id="Rectangle" width="3" height="3" x="20" y="60" fill="#230CEA"/><rect id="Rectangle" width="3" height="3" x="40" y="20" fill="#023753" opacity=".2"/><rect id="Rectangle" width="3" height="3" x="60" y="20" fill="#023753" opacity=".2"/><rect id="Rectangle" width="3" height="3" x="40" y="0" fill="#023753" opacity=".2"/><rect id="Rectangle" width="3" height="3" x="60" y="0" fill="#023753" opacity=".2"/><rect id="Rectangle" width="3" height="3" x="40" y="40" fill="#023753" opacity=".2"/><rect id="Rectangle" width="3" height="3" x="60" y="40" fill="#023753" opacity=".2"/><rect id="Rectangle" width="3" height="3" x="40" y="60" fill="#023753" opacity=".2"/><rect id="Rectangle" width="3" height="3" x="60" y="60" fill="#023753" opacity=".2"/><rect id="Rectangle" width="3" height="3" x="80" y="20" fill="#023753" opacity=".2"/><rect id="Rectangle" width="3" height="3" x="100" y="20" fill="#023753" opacity=".2"/><rect id="Rectangle" width="3" height="3" x="80" y="0" fill="#023753" opacity=".2"/><rect id="Rectangle" width="3" height="3" x="100" y="0" fill="#023753" opacity=".2"/><rect id="Rectangle" width="3" height="3" x="80" y="40" fill="#023753" opacity=".2"/><rect id="Rectangle" width="3" height="3" x="100" y="40" fill="#023753" opacity=".2"/><rect id="Rectangle" width="3" height="3" x="80" y="60" fill="#023753" opacity=".2"/><rect id="Rectangle" width="3" height="3" x="100" y="60" fill="#023753" opacity=".2"/><rect id="Rectangle" width="3" height="3" x="120" y="20" fill="#023753" opacity=".2"/><rect id="Rectangle" width="3" height="3" x="140" y="20" fill="#023753" opacity=".2"/><rect id="Rectangle" width="3" height="3" x="120" y="0" fill="#023753" opacity=".2"/><rect id="Rectangle" width="3" height="3" x="140" y="0" fill="#023753" opacity=".2"/><rect id="Rectangle" width="3" height="3" x="120" y="40" fill="#023753" opacity=".2"/><rect id="Rectangle" width="3" height="3" x="140" y="40" fill="#023753" opacity=".2"/><rect id="Rectangle" width="3" height="3" x="120" y="60" fill="#023753" opacity=".2"/><rect id="Rectangle" width="3" height="3" x="140" y="60" fill="#023753" opacity=".2"/><rect id="Rectangle" width="3" height="3" x="160" y="20" fill="#023753" opacity=".2"/><rect id="Rectangle" width="3" height="3" x="160" y="0" fill="#023753" opacity=".2"/><rect id="Rectangle" width="3" height="3" x="160" y="40" fill="#023753" opacity=".2"/><rect id="Rectangle" width="3" height="3" x="160" y="60" fill="#023753" opacity=".2"/></g></g></g></svg>