<svg xmlns="http://www.w3.org/2000/svg" xmlns:xlink="http://www.w3.org/1999/xlink" width="23" height="103" version="1.1" viewBox="0 0 23 103"><title>dots_white</title><desc>Created with Sketch.</desc><g id="RDB-Web-Design" fill="none" fill-rule="evenodd" stroke="none" stroke-width="1"><g id="1.1_ReactDay---template" fill="#FFF" transform="translate(-85.000000, -349.000000)"><g id="Group-10" transform="translate(85.000000, 342.000000)"><g id="dots_white" transform="translate(0.000000, 7.000000)"><rect id="Rectangle" width="3" height="3" x="20" y="0" transform="translate(21.500000, 1.500000) scale(-1, 1) translate(-21.500000, -1.500000)"/><rect id="Rectangle" width="3" height="3" x="0" y="0" transform="translate(1.500000, 1.500000) scale(-1, 1) translate(-1.500000, -1.500000)"/><rect id="Rectangle" width="3" height="3" x="20" y="20" transform="translate(21.500000, 21.500000) scale(-1, 1) translate(-21.500000, -21.500000)"/><rect id="Rectangle" width="3" height="3" x="0" y="20" transform="translate(1.500000, 21.500000) scale(-1, 1) translate(-1.500000, -21.500000)"/><rect id="Rectangle" width="3" height="3" x="20" y="40" transform="translate(21.500000, 41.500000) scale(-1, 1) translate(-21.500000, -41.500000)"/><rect id="Rectangle" width="3" height="3" x="0" y="40" transform="translate(1.500000, 41.500000) scale(-1, 1) translate(-1.500000, -41.500000)"/><rect id="Rectangle" width="3" height="3" x="20" y="60" transform="translate(21.500000, 61.500000) scale(-1, 1) translate(-21.500000, -61.500000)"/><rect id="Rectangle" width="3" height="3" x="0" y="60" transform="translate(1.500000, 61.500000) scale(-1, 1) translate(-1.500000, -61.500000)"/><rect id="Rectangle" width="3" height="3" x="0" y="80" transform="translate(1.500000, 81.500000) scale(-1, 1) translate(-1.500000, -81.500000)"/><rect id="Rectangle" width="3" height="3" x="20" y="80" transform="translate(21.500000, 81.500000) scale(-1, 1) translate(-21.500000, -81.500000)"/><rect id="Rectangle" width="3" height="3" x="20" y="100" transform="translate(21.500000, 101.500000) scale(-1, 1) translate(-21.500000, -101.500000)"/><rect id="Rectangle" width="3" height="3" x="0" y="100" transform="translate(1.500000, 101.500000) scale(-1, 1) translate(-1.500000, -101.500000)"/></g></g></g></g></svg>