<svg xmlns="http://www.w3.org/2000/svg" xmlns:xlink="http://www.w3.org/1999/xlink" width="103" height="23" version="1.1" viewBox="0 0 103 23"><title>Anim_dots</title><desc>Created with Sketch.</desc><g id="RDB-Web-Design" fill="none" fill-rule="evenodd" stroke="none" stroke-width="1"><g id="1.1_ReactDay---template" fill="#0024FF" transform="translate(-473.000000, -2461.000000)"><g id="Anim_dots" transform="translate(524.500000, 2472.500000) rotate(90.000000) translate(-524.500000, -2472.500000) translate(513.000000, 2421.000000)"><g id="dots_white"><rect id="Rectangle" width="3" height="3" x="20" y="0" transform="translate(21.500000, 1.500000) scale(-1, 1) translate(-21.500000, -1.500000)"/><rect id="Rectangle" width="3" height="3" x="0" y="0" transform="translate(1.500000, 1.500000) scale(-1, 1) translate(-1.500000, -1.500000)"/><rect id="Rectangle" width="3" height="3" x="20" y="20" transform="translate(21.500000, 21.500000) scale(-1, 1) translate(-21.500000, -21.500000)"/><rect id="Rectangle" width="3" height="3" x="0" y="20" transform="translate(1.500000, 21.500000) scale(-1, 1) translate(-1.500000, -21.500000)"/><rect id="Rectangle" width="3" height="3" x="20" y="40"/><rect id="Rectangle" width="3" height="3" x="0" y="40" transform="translate(1.500000, 41.500000) scale(-1, 1) translate(-1.500000, -41.500000)"/><rect id="Rectangle" width="3" height="3" x="20" y="60"/><rect id="Rectangle" width="3" height="3" x="0" y="60"/><rect id="Rectangle" width="3" height="3" x="0" y="80"/><rect id="Rectangle" width="3" height="3" x="20" y="80"/><rect id="Rectangle" width="3" height="3" x="20" y="100"/><rect id="Rectangle" width="3" height="3" x="0" y="100"/></g></g></g></g></svg>