<svg xmlns="http://www.w3.org/2000/svg" xmlns:xlink="http://www.w3.org/1999/xlink" width="12" height="182" version="1.1" viewBox="0 0 12 182"><title>Group 22</title><desc>Created with Sketch.</desc><g id="RDB-Web-Design" fill="none" fill-rule="evenodd" stroke="none" stroke-width="1"><g id="React-day-Berlin-2018-mob" transform="translate(-10.000000, -458.000000)"><g id="Group-22" transform="translate(10.000000, 458.000000)"><g id="Group-9" fill="#FFF"><rect id="Rectangle" width="2" height="2" x="10" y="0"/><rect id="Rectangle" width="2" height="2" x="0" y="0"/><rect id="Rectangle" width="2" height="2" x="10" y="10"/><rect id="Rectangle" width="2" height="2" x="0" y="10"/><rect id="Rectangle" width="2" height="2" x="10" y="20"/><rect id="Rectangle" width="2" height="2" x="0" y="20"/><rect id="Rectangle" width="2" height="2" x="10" y="30"/><rect id="Rectangle" width="2" height="2" x="0" y="30"/><rect id="Rectangle" width="2" height="2" x="10" y="40"/><rect id="Rectangle" width="2" height="2" x="0" y="40"/><rect id="Rectangle" width="2" height="2" x="10" y="50"/><rect id="Rectangle" width="2" height="2" x="0" y="50"/><rect id="Rectangle" width="2" height="2" x="10" y="60"/><rect id="Rectangle" width="2" height="2" x="0" y="60"/></g><g id="Group-9" fill="#230CEA" transform="translate(0.000000, 70.000000)"><rect id="Rectangle" width="2" height="2" x="10" y="0" opacity=".2"/><rect id="Rectangle" width="2" height="2" x="0" y="0" opacity=".2"/><rect id="Rectangle" width="2" height="2" x="10" y="10" opacity=".2"/><rect id="Rectangle" width="2" height="2" x="0" y="10" opacity=".2"/><rect id="Rectangle" width="2" height="2" x="10" y="20" opacity=".2"/><rect id="Rectangle" width="2" height="2" x="0" y="20" opacity=".2"/><rect id="Rectangle" width="2" height="2" x="10" y="30"/><rect id="Rectangle" width="2" height="2" x="0" y="30"/><rect id="Rectangle" width="2" height="2" x="10" y="40"/><rect id="Rectangle" width="2" height="2" x="0" y="40"/><rect id="Rectangle" width="2" height="2" x="10" y="50"/><rect id="Rectangle" width="2" height="2" x="0" y="50"/><rect id="Rectangle" width="2" height="2" x="10" y="60"/><rect id="Rectangle" width="2" height="2" x="0" y="60"/><rect id="Rectangle" width="2" height="2" x="10" y="70"/><rect id="Rectangle" width="2" height="2" x="0" y="70"/><rect id="Rectangle" width="2" height="2" x="10" y="80"/><rect id="Rectangle" width="2" height="2" x="0" y="80"/><rect id="Rectangle" width="2" height="2" x="10" y="90"/><rect id="Rectangle" width="2" height="2" x="0" y="90"/><rect id="Rectangle" width="2" height="2" x="10" y="100"/><rect id="Rectangle" width="2" height="2" x="0" y="100"/><rect id="Rectangle" width="2" height="2" x="10" y="110"/><rect id="Rectangle" width="2" height="2" x="0" y="110"/></g></g></g></g></svg>