<svg xmlns="http://www.w3.org/2000/svg" xmlns:xlink="http://www.w3.org/1999/xlink" width="203" height="223" version="1.1" viewBox="0 0 203 223"><title>Group 12</title><desc>Created with Sketch.</desc><g id="RDB-Web-Design" fill="none" fill-rule="evenodd" stroke="none" stroke-width="1"><g id="React-day-Berlin-2018-web" fill="#230CEA" transform="translate(-1161.000000, -3044.000000)"><g id="Group-12" transform="translate(1262.500000, 3155.500000) scale(-1, 1) translate(-1262.500000, -3155.500000) translate(1161.000000, 3044.000000)"><rect id="Rectangle" width="3" height="3" x="60" y="180"/><rect id="Rectangle" width="3" height="3" x="40" y="180"/><rect id="Rectangle" width="3" height="3" x="20" y="180"/><rect id="Rectangle" width="3" height="3" x="0" y="180"/><rect id="Rectangle" width="3" height="3" x="100" y="180" opacity=".2"/><rect id="Rectangle" width="3" height="3" x="80" y="180" opacity=".2"/><rect id="Rectangle" width="3" height="3" x="160" y="180" opacity=".2"/><rect id="Rectangle" width="3" height="3" x="140" y="180" opacity=".2"/><rect id="Rectangle" width="3" height="3" x="120" y="180" opacity=".2"/><rect id="Rectangle" width="3" height="3" x="60" y="160"/><rect id="Rectangle" width="3" height="3" x="40" y="160"/><rect id="Rectangle" width="3" height="3" x="20" y="160"/><rect id="Rectangle" width="3" height="3" x="0" y="160"/><rect id="Rectangle" width="3" height="3" x="60" y="220"/><rect id="Rectangle" width="3" height="3" x="40" y="220"/><rect id="Rectangle" width="3" height="3" x="20" y="220"/><rect id="Rectangle" width="3" height="3" x="0" y="220"/><rect id="Rectangle" width="3" height="3" x="60" y="200"/><rect id="Rectangle" width="3" height="3" x="40" y="200"/><rect id="Rectangle" width="3" height="3" x="20" y="200"/><rect id="Rectangle" width="3" height="3" x="0" y="200"/><rect id="Rectangle" width="3" height="3" x="100" y="160" opacity=".2"/><rect id="Rectangle" width="3" height="3" x="80" y="160" opacity=".2"/><rect id="Rectangle" width="3" height="3" x="160" y="160" opacity=".2"/><rect id="Rectangle" width="3" height="3" x="140" y="160" opacity=".2"/><rect id="Rectangle" width="3" height="3" x="120" y="160" opacity=".2"/><rect id="Rectangle" width="3" height="3" x="100" y="140" opacity=".2"/><rect id="Rectangle" width="3" height="3" x="80" y="140" opacity=".2"/><rect id="Rectangle" width="3" height="3" x="60" y="140" opacity=".2"/><rect id="Rectangle" width="3" height="3" x="40" y="140" opacity=".2"/><rect id="Rectangle" width="3" height="3" x="160" y="140" opacity=".2"/><rect id="Rectangle" width="3" height="3" x="140" y="140" opacity=".2"/><rect id="Rectangle" width="3" height="3" x="120" y="140" opacity=".2"/><rect id="Rectangle" width="3" height="3" x="100" y="120" opacity=".2"/><rect id="Rectangle" width="3" height="3" x="80" y="120" opacity=".2"/><rect id="Rectangle" width="3" height="3" x="60" y="120" opacity=".2"/><rect id="Rectangle" width="3" height="3" x="40" y="120" opacity=".2"/><rect id="Rectangle" width="3" height="3" x="160" y="120" opacity=".2"/><rect id="Rectangle" width="3" height="3" x="140" y="120" opacity=".2"/><rect id="Rectangle" width="3" height="3" x="200" y="180" opacity=".2"/><rect id="Rectangle" width="3" height="3" x="180" y="180" opacity=".2"/><rect id="Rectangle" width="3" height="3" x="200" y="160" opacity=".2"/><rect id="Rectangle" width="3" height="3" x="180" y="160" opacity=".2"/><rect id="Rectangle" width="3" height="3" x="200" y="140" opacity=".2"/><rect id="Rectangle" width="3" height="3" x="180" y="140" opacity=".2"/><rect id="Rectangle" width="3" height="3" x="200" y="120" opacity=".2"/><rect id="Rectangle" width="3" height="3" x="180" y="120" opacity=".2"/><rect id="Rectangle" width="3" height="3" x="120" y="120" opacity=".2"/><rect id="Rectangle" width="3" height="3" x="100" y="100" opacity=".2"/><rect id="Rectangle" width="3" height="3" x="80" y="100" opacity=".2"/><rect id="Rectangle" width="3" height="3" x="60" y="100" opacity=".2"/><rect id="Rectangle" width="3" height="3" x="40" y="100" opacity=".2"/><rect id="Rectangle" width="3" height="3" x="160" y="100" opacity=".2"/><rect id="Rectangle" width="3" height="3" x="140" y="100" opacity=".2"/><rect id="Rectangle" width="3" height="3" x="120" y="100" opacity=".2"/><rect id="Rectangle" width="3" height="3" x="100" y="80" opacity=".2"/><rect id="Rectangle" width="3" height="3" x="80" y="80" opacity=".2"/><rect id="Rectangle" width="3" height="3" x="60" y="80" opacity=".2"/><rect id="Rectangle" width="3" height="3" x="40" y="80" opacity=".2"/><rect id="Rectangle" width="3" height="3" x="160" y="80" opacity=".2"/><rect id="Rectangle" width="3" height="3" x="140" y="80" opacity=".2"/><rect id="Rectangle" width="3" height="3" x="200" y="100" opacity=".2"/><rect id="Rectangle" width="3" height="3" x="180" y="100" opacity=".2"/><rect id="Rectangle" width="3" height="3" x="200" y="80" opacity=".2"/><rect id="Rectangle" width="3" height="3" x="180" y="80" opacity=".2"/><rect id="Rectangle" width="3" height="3" x="120" y="80" opacity=".2"/><rect id="Rectangle" width="3" height="3" x="100" y="60" opacity=".2"/><rect id="Rectangle" width="3" height="3" x="80" y="60" opacity=".2"/><rect id="Rectangle" width="3" height="3" x="60" y="60" opacity=".2"/><rect id="Rectangle" width="3" height="3" x="40" y="60" opacity=".2"/><rect id="Rectangle" width="3" height="3" x="160" y="60" opacity=".2"/><rect id="Rectangle" width="3" height="3" x="140" y="60" opacity=".2"/><rect id="Rectangle" width="3" height="3" x="120" y="60" opacity=".2"/><rect id="Rectangle" width="3" height="3" x="100" y="40" opacity=".2"/><rect id="Rectangle" width="3" height="3" x="80" y="40" opacity=".2"/><rect id="Rectangle" width="3" height="3" x="60" y="40" opacity=".2"/><rect id="Rectangle" width="3" height="3" x="40" y="40" opacity=".2"/><rect id="Rectangle" width="3" height="3" x="160" y="40" opacity=".2"/><rect id="Rectangle" width="3" height="3" x="140" y="40" opacity=".2"/><rect id="Rectangle" width="3" height="3" x="200" y="60" opacity=".2"/><rect id="Rectangle" width="3" height="3" x="180" y="60" opacity=".2"/><rect id="Rectangle" width="3" height="3" x="200" y="40" opacity=".2"/><rect id="Rectangle" width="3" height="3" x="180" y="40" opacity=".2"/><rect id="Rectangle" width="3" height="3" x="120" y="40" opacity=".2"/><rect id="Rectangle" width="3" height="3" x="100" y="20" opacity=".2"/><rect id="Rectangle" width="3" height="3" x="80" y="20" opacity=".2"/><rect id="Rectangle" width="3" height="3" x="60" y="20" opacity=".2"/><rect id="Rectangle" width="3" height="3" x="40" y="20" opacity=".2"/><rect id="Rectangle" width="3" height="3" x="160" y="20" opacity=".2"/><rect id="Rectangle" width="3" height="3" x="140" y="20" opacity=".2"/><rect id="Rectangle" width="3" height="3" x="120" y="20" opacity=".2"/><rect id="Rectangle" width="3" height="3" x="100" y="0" opacity=".2"/><rect id="Rectangle" width="3" height="3" x="80" y="0" opacity=".2"/><rect id="Rectangle" width="3" height="3" x="60" y="0" opacity=".2"/><rect id="Rectangle" width="3" height="3" x="40" y="0" opacity=".2"/><rect id="Rectangle" width="3" height="3" x="160" y="0" opacity=".2"/><rect id="Rectangle" width="3" height="3" x="140" y="0" opacity=".2"/><rect id="Rectangle" width="3" height="3" x="200" y="20" opacity=".2"/><rect id="Rectangle" width="3" height="3" x="180" y="20" opacity=".2"/><rect id="Rectangle" width="3" height="3" x="200" y="0" opacity=".2"/><rect id="Rectangle" width="3" height="3" x="180" y="0" opacity=".2"/><rect id="Rectangle" width="3" height="3" x="120" y="0" opacity=".2"/></g></g></g></svg>