<svg xmlns="http://www.w3.org/2000/svg" xmlns:xlink="http://www.w3.org/1999/xlink" width="183" height="183" version="1.1" viewBox="0 0 183 183"><title>Group 17</title><desc>Created with Sketch.</desc><g id="RDB-Web-Design" fill="none" fill-rule="evenodd" stroke="none" stroke-width="1"><g id="React-day-Berlin-2018-web" fill="#230CEA" transform="translate(-41.000000, -3779.000000)"><g id="Group-17" transform="translate(132.500000, 3870.500000) scale(1, -1) translate(-132.500000, -3870.500000) translate(41.000000, 3779.000000)"><g id="Group-18"><g id="Group-19" transform="translate(31.500000, 151.500000) scale(-1, -1) translate(-31.500000, -151.500000) translate(0.000000, 120.000000)"><rect id="Rectangle" width="3" height="3" x="0" y="40"/><rect id="Rectangle" width="3" height="3" x="0" y="20"/><rect id="Rectangle" width="3" height="3" x="0" y="60"/><rect id="Rectangle" width="3" height="3" x="20" y="40"/><rect id="Rectangle" width="3" height="3" x="20" y="20"/><rect id="Rectangle" width="3" height="3" x="20" y="60"/><rect id="Rectangle" width="3" height="3" x="40" y="40"/><rect id="Rectangle" width="3" height="3" x="40" y="20"/><rect id="Rectangle" width="3" height="3" x="40" y="60"/><rect id="Rectangle" width="3" height="3" x="60" y="40"/><rect id="Rectangle" width="3" height="3" x="60" y="20"/><rect id="Rectangle" width="3" height="3" x="0" y="0"/><rect id="Rectangle" width="3" height="3" x="20" y="0"/><rect id="Rectangle" width="3" height="3" x="40" y="0"/><rect id="Rectangle" width="3" height="3" x="60" y="0"/><rect id="Rectangle" width="3" height="3" x="60" y="60"/></g><rect id="Rectangle" width="3" height="3" x="40" y="100" opacity=".2"/><rect id="Rectangle" width="3" height="3" x="40" y="80" opacity=".2"/><rect id="Rectangle" width="3" height="3" x="60" y="100" opacity=".2"/><rect id="Rectangle" width="3" height="3" x="60" y="80" opacity=".2"/><rect id="Rectangle" width="3" height="3" x="80" y="120" opacity=".2"/><rect id="Rectangle" width="3" height="3" x="80" y="100" opacity=".2"/><rect id="Rectangle" width="3" height="3" x="80" y="80" opacity=".2"/><rect id="Rectangle" width="3" height="3" x="80" y="140" opacity=".2"/><rect id="Rectangle" width="3" height="3" x="100" y="120" opacity=".2"/><rect id="Rectangle" width="3" height="3" x="100" y="100" opacity=".2"/><rect id="Rectangle" width="3" height="3" x="100" y="80" opacity=".2"/><rect id="Rectangle" width="3" height="3" x="40" y="60" opacity=".2"/><rect id="Rectangle" width="3" height="3" x="40" y="40" opacity=".2"/><rect id="Rectangle" width="3" height="3" x="60" y="60" opacity=".2"/><rect id="Rectangle" width="3" height="3" x="60" y="40" opacity=".2"/><rect id="Rectangle" width="3" height="3" x="80" y="60" opacity=".2"/><rect id="Rectangle" width="3" height="3" x="80" y="40" opacity=".2"/><rect id="Rectangle" width="3" height="3" x="100" y="60" opacity=".2"/><rect id="Rectangle" width="3" height="3" x="100" y="40" opacity=".2"/><rect id="Rectangle" width="3" height="3" x="40" y="20" opacity=".2"/><rect id="Rectangle" width="3" height="3" x="40" y="0" opacity=".2"/><rect id="Rectangle" width="3" height="3" x="60" y="20" opacity=".2"/><rect id="Rectangle" width="3" height="3" x="60" y="0" opacity=".2"/><rect id="Rectangle" width="3" height="3" x="80" y="20" opacity=".2"/><rect id="Rectangle" width="3" height="3" x="80" y="0" opacity=".2"/><rect id="Rectangle" width="3" height="3" x="100" y="20" opacity=".2"/><rect id="Rectangle" width="3" height="3" x="100" y="0" opacity=".2"/><rect id="Rectangle" width="3" height="3" x="100" y="140" opacity=".2"/><rect id="Rectangle" width="3" height="3" x="120" y="120" opacity=".2"/><rect id="Rectangle" width="3" height="3" x="120" y="100" opacity=".2"/><rect id="Rectangle" width="3" height="3" x="120" y="80" opacity=".2"/><rect id="Rectangle" width="3" height="3" x="120" y="140" opacity=".2"/><rect id="Rectangle" width="3" height="3" x="140" y="120" opacity=".2"/><rect id="Rectangle" width="3" height="3" x="140" y="100" opacity=".2"/><rect id="Rectangle" width="3" height="3" x="140" y="80" opacity=".2"/><rect id="Rectangle" width="3" height="3" x="120" y="60" opacity=".2"/><rect id="Rectangle" width="3" height="3" x="120" y="40" opacity=".2"/><rect id="Rectangle" width="3" height="3" x="140" y="60" opacity=".2"/><rect id="Rectangle" width="3" height="3" x="140" y="40" opacity=".2"/><rect id="Rectangle" width="3" height="3" x="120" y="20" opacity=".2"/><rect id="Rectangle" width="3" height="3" x="120" y="0" opacity=".2"/><rect id="Rectangle" width="3" height="3" x="140" y="20" opacity=".2"/><rect id="Rectangle" width="3" height="3" x="140" y="0" opacity=".2"/><rect id="Rectangle" width="3" height="3" x="140" y="140" opacity=".2"/><rect id="Rectangle" width="3" height="3" x="160" y="120" opacity=".2"/><rect id="Rectangle" width="3" height="3" x="160" y="100" opacity=".2"/><rect id="Rectangle" width="3" height="3" x="160" y="80" opacity=".2"/><rect id="Rectangle" width="3" height="3" x="160" y="140" opacity=".2"/><rect id="Rectangle" width="3" height="3" x="180" y="120" opacity=".2"/><rect id="Rectangle" width="3" height="3" x="180" y="100" opacity=".2"/><rect id="Rectangle" width="3" height="3" x="180" y="80" opacity=".2"/><rect id="Rectangle" width="3" height="3" x="160" y="60" opacity=".2"/><rect id="Rectangle" width="3" height="3" x="160" y="40" opacity=".2"/><rect id="Rectangle" width="3" height="3" x="180" y="60" opacity=".2"/><rect id="Rectangle" width="3" height="3" x="180" y="40" opacity=".2"/><rect id="Rectangle" width="3" height="3" x="160" y="20" opacity=".2"/><rect id="Rectangle" width="3" height="3" x="160" y="0" opacity=".2"/><rect id="Rectangle" width="3" height="3" x="180" y="20" opacity=".2"/><rect id="Rectangle" width="3" height="3" x="180" y="0" opacity=".2"/><rect id="Rectangle" width="3" height="3" x="180" y="140" opacity=".2"/></g></g></g></g></svg>