<svg xmlns="http://www.w3.org/2000/svg" xmlns:xlink="http://www.w3.org/1999/xlink" width="124" height="203" version="1.1" viewBox="0 0 124 203"><title>Anim_dots</title><desc>Created with Sketch.</desc><g id="RDB-Web-Design" fill="none" fill-rule="evenodd" stroke="none" stroke-width="1"><g id="React-day-Berlin-2018-web" transform="translate(-1090.000000, -1737.000000)"><g id="2-screen" transform="translate(-177.000000, 790.000000)"><g id="Anim_dots" transform="translate(1267.000000, 947.000000)"><g id="dots_dark" fill="#2700C3"><rect id="Rectangle" width="3" height="3" x="60" y="0" transform="translate(61.500000, 1.500000) scale(-1, 1) translate(-61.500000, -1.500000)"/><rect id="Rectangle" width="3" height="3" x="60" y="20" transform="translate(61.500000, 21.500000) scale(-1, 1) translate(-61.500000, -21.500000)"/><rect id="Rectangle" width="3" height="3" x="40" y="20" transform="translate(41.500000, 21.500000) scale(-1, 1) translate(-41.500000, -21.500000)"/><rect id="Rectangle" width="3" height="3" x="20" y="20" transform="translate(21.500000, 21.500000) scale(-1, 1) translate(-21.500000, -21.500000)"/><rect id="Rectangle" width="3" height="3" x="0" y="20" transform="translate(1.500000, 21.500000) scale(-1, 1) translate(-1.500000, -21.500000)"/><rect id="Rectangle" width="3" height="3" x="0" y="0" transform="translate(1.500000, 1.500000) scale(-1, 1) translate(-1.500000, -1.500000)"/><rect id="Rectangle" width="3" height="3" x="20" y="0" transform="translate(21.500000, 1.500000) scale(-1, 1) translate(-21.500000, -1.500000)"/><rect id="Rectangle" width="3" height="3" x="40" y="0" transform="translate(41.500000, 1.500000) scale(-1, 1) translate(-41.500000, -1.500000)"/><rect id="Rectangle" width="3" height="3" x="60" y="40" transform="translate(61.500000, 41.500000) scale(-1, 1) translate(-61.500000, -41.500000)"/><rect id="Rectangle" width="3" height="3" x="40" y="40" transform="translate(41.500000, 41.500000) scale(-1, 1) translate(-41.500000, -41.500000)"/><rect id="Rectangle" width="3" height="3" x="20" y="40" transform="translate(21.500000, 41.500000) scale(-1, 1) translate(-21.500000, -41.500000)"/><rect id="Rectangle" width="3" height="3" x="0" y="40" transform="translate(1.500000, 41.500000) scale(-1, 1) translate(-1.500000, -41.500000)"/><rect id="Rectangle" width="3" height="3" x="60" y="60" transform="translate(61.500000, 61.500000) scale(-1, 1) translate(-61.500000, -61.500000)"/><rect id="Rectangle" width="3" height="3" x="40" y="60" transform="translate(41.500000, 61.500000) scale(-1, 1) translate(-41.500000, -61.500000)"/><rect id="Rectangle" width="3" height="3" x="20" y="60" transform="translate(21.500000, 61.500000) scale(-1, 1) translate(-21.500000, -61.500000)"/><rect id="Rectangle" width="3" height="3" x="0" y="60" transform="translate(1.500000, 61.500000) scale(-1, 1) translate(-1.500000, -61.500000)"/><rect id="Rectangle" width="3" height="3" x="60" y="80" transform="translate(61.500000, 81.500000) scale(-1, 1) translate(-61.500000, -81.500000)"/><rect id="Rectangle" width="3" height="3" x="40" y="80" transform="translate(41.500000, 81.500000) scale(-1, 1) translate(-41.500000, -81.500000)"/><rect id="Rectangle" width="3" height="3" x="20" y="80" transform="translate(21.500000, 81.500000) scale(-1, 1) translate(-21.500000, -81.500000)"/><rect id="Rectangle" width="3" height="3" x="0" y="80" transform="translate(1.500000, 81.500000) scale(-1, 1) translate(-1.500000, -81.500000)"/><rect id="Rectangle" width="3" height="3" x="60" y="100" transform="translate(61.500000, 101.500000) scale(-1, 1) translate(-61.500000, -101.500000)"/><rect id="Rectangle" width="3" height="3" x="40" y="100" transform="translate(41.500000, 101.500000) scale(-1, 1) translate(-41.500000, -101.500000)"/><rect id="Rectangle" width="3" height="3" x="20" y="100" transform="translate(21.500000, 101.500000) scale(-1, 1) translate(-21.500000, -101.500000)"/><rect id="Rectangle" width="3" height="3" x="100" y="0" transform="translate(101.500000, 1.500000) scale(-1, 1) translate(-101.500000, -1.500000)"/><rect id="Rectangle" width="3" height="3" x="80" y="0" transform="translate(81.500000, 1.500000) scale(-1, 1) translate(-81.500000, -1.500000)"/><rect id="Rectangle" width="3" height="3" x="100" y="20" transform="translate(101.500000, 21.500000) scale(-1, 1) translate(-101.500000, -21.500000)"/><rect id="Rectangle" width="3" height="3" x="80" y="20" transform="translate(81.500000, 21.500000) scale(-1, 1) translate(-81.500000, -21.500000)"/><rect id="Rectangle" width="3" height="3" x="100" y="40" transform="translate(101.500000, 41.500000) scale(-1, 1) translate(-101.500000, -41.500000)"/><rect id="Rectangle" width="3" height="3" x="80" y="40" transform="translate(81.500000, 41.500000) scale(-1, 1) translate(-81.500000, -41.500000)"/><rect id="Rectangle" width="3" height="3" x="100" y="60" transform="translate(101.500000, 61.500000) scale(-1, 1) translate(-101.500000, -61.500000)"/><rect id="Rectangle" width="3" height="3" x="80" y="60" transform="translate(81.500000, 61.500000) scale(-1, 1) translate(-81.500000, -61.500000)"/><rect id="Rectangle" width="3" height="3" x="100" y="80" transform="translate(101.500000, 81.500000) scale(-1, 1) translate(-101.500000, -81.500000)"/><rect id="Rectangle" width="3" height="3" x="80" y="80" transform="translate(81.500000, 81.500000) scale(-1, 1) translate(-81.500000, -81.500000)"/><rect id="Rectangle" width="3" height="3" x="100" y="100" transform="translate(101.500000, 101.500000) scale(-1, 1) translate(-101.500000, -101.500000)"/><rect id="Rectangle" width="3" height="3" x="80" y="100" transform="translate(81.500000, 101.500000) scale(-1, 1) translate(-81.500000, -101.500000)"/><rect id="Rectangle" width="3" height="3" x="0" y="100" transform="translate(1.500000, 101.500000) scale(-1, 1) translate(-1.500000, -101.500000)"/></g><g id="dots_white" fill="#FFF" transform="translate(101.000000, 100.000000)"><rect id="Rectangle" width="3" height="3" x="20" y="0" transform="translate(21.500000, 1.500000) scale(-1, 1) translate(-21.500000, -1.500000)"/><rect id="Rectangle" width="3" height="3" x="0" y="0" transform="translate(1.500000, 1.500000) scale(-1, 1) translate(-1.500000, -1.500000)"/><rect id="Rectangle" width="3" height="3" x="20" y="20" transform="translate(21.500000, 21.500000) scale(-1, 1) translate(-21.500000, -21.500000)"/><rect id="Rectangle" width="3" height="3" x="0" y="20" transform="translate(1.500000, 21.500000) scale(-1, 1) translate(-1.500000, -21.500000)"/><rect id="Rectangle" width="3" height="3" x="20" y="40" transform="translate(21.500000, 41.500000) scale(-1, 1) translate(-21.500000, -41.500000)"/><rect id="Rectangle" width="3" height="3" x="0" y="40" transform="translate(1.500000, 41.500000) scale(-1, 1) translate(-1.500000, -41.500000)"/><rect id="Rectangle" width="3" height="3" x="20" y="60" transform="translate(21.500000, 61.500000) scale(-1, 1) translate(-21.500000, -61.500000)"/><rect id="Rectangle" width="3" height="3" x="0" y="60" transform="translate(1.500000, 61.500000) scale(-1, 1) translate(-1.500000, -61.500000)"/><rect id="Rectangle" width="3" height="3" x="0" y="80" transform="translate(1.500000, 81.500000) scale(-1, 1) translate(-1.500000, -81.500000)"/><rect id="Rectangle" width="3" height="3" x="20" y="80" transform="translate(21.500000, 81.500000) scale(-1, 1) translate(-21.500000, -81.500000)"/><rect id="Rectangle" width="3" height="3" x="20" y="100" transform="translate(21.500000, 101.500000) scale(-1, 1) translate(-21.500000, -101.500000)"/><rect id="Rectangle" width="3" height="3" x="0" y="100" transform="translate(1.500000, 101.500000) scale(-1, 1) translate(-1.500000, -101.500000)"/></g></g></g></g></g></svg>