<svg xmlns="http://www.w3.org/2000/svg" xmlns:xlink="http://www.w3.org/1999/xlink" width="83" height="75" viewBox="0 0 83 75"><defs><path id="z5y6a" d="M232 1260.93v-2.71h3v2.71z"/><path id="z5y6b" d="M252 1260.93v-2.71h3v2.71z"/><path id="z5y6c" d="M232 1279v-2.71h3v2.71z"/><path id="z5y6d" d="M252 1279v-2.71h3v2.71z"/><path id="z5y6e" d="M272 1206.71V1204h3v2.71z"/><path id="z5y6f" d="M252 1206.71V1204h3v2.71z"/><path id="z5y6g" d="M272 1224.78v-2.71h3v2.71z"/><path id="z5y6h" d="M252 1224.78v-2.71h3v2.71z"/><path id="z5y6i" d="M292 1242.85v-2.71h3v2.71z"/><path id="z5y6j" d="M312 1242.85v-2.71h3v2.71z"/><path id="z5y6k" d="M292 1260.93v-2.71h3v2.71z"/><path id="z5y6l" d="M312 1260.93v-2.71h3v2.71z"/><path id="z5y6m" d="M312 1206.71V1204h3v2.71z"/><path id="z5y6n" d="M292 1206.71V1204h3v2.71z"/><path id="z5y6o" d="M312 1224.78v-2.71h3v2.71z"/><path id="z5y6p" d="M292 1224.78v-2.71h3v2.71z"/><path id="z5y6q" d="M272 1242.85v-2.71h3v2.71z"/><path id="z5y6r" d="M272 1260.93v-2.71h3v2.71z"/><path id="z5y6s" d="M252 1242.85v-2.71h3v2.71z"/></defs><g><g clip-path="url(#clip-DAD5182D-1941-4B6E-9E5C-1ECDEAEA9811)" transform="matrix(-1 0 0 1 315 -1204)"><g><use fill="#fff" xlink:href="#z5y6a"/></g><g><use fill="#fff" xlink:href="#z5y6b"/></g><g><use fill="#fff" xlink:href="#z5y6c"/></g><g><use fill="#fff" xlink:href="#z5y6d"/></g><g><use fill="#2700c3" xlink:href="#z5y6e"/></g><g><use fill="#2700c3" xlink:href="#z5y6f"/></g><g><use fill="#2700c3" xlink:href="#z5y6g"/></g><g><use fill="#2700c3" xlink:href="#z5y6h"/></g><g><use fill="#2700c3" xlink:href="#z5y6i"/></g><g><use fill="#2700c3" xlink:href="#z5y6j"/></g><g><use fill="#2700c3" xlink:href="#z5y6k"/></g><g><use fill="#2700c3" xlink:href="#z5y6l"/></g><g><use fill="#2700c3" xlink:href="#z5y6m"/></g><g><use fill="#2700c3" xlink:href="#z5y6n"/></g><g><use fill="#2700c3" xlink:href="#z5y6o"/></g><g><use fill="#2700c3" xlink:href="#z5y6p"/></g><g><use fill="#2700c3" xlink:href="#z5y6q"/></g><g><use fill="#2700c3" xlink:href="#z5y6r"/></g><g><use fill="#2700c3" xlink:href="#z5y6s"/></g></g></g></svg>