<svg xmlns="http://www.w3.org/2000/svg" xmlns:xlink="http://www.w3.org/1999/xlink" width="60" height="63" viewBox="0 0 60 63"><defs><path id="6pena" d="M192.6 52.85c0-2.1-3.3-4.83-8.73-6.67-.56-.2-1.14-.37-1.74-.55a57.56 57.56 0 0 1-2.85 7.23 57.58 57.58 0 0 1 2.97 7.34l.98-.3c5.8-1.9 9.37-4.81 9.37-7.05zm-33.4 23.51c-3.75 2.24-7.25 2.9-9.58 1.58-3.05-1.74-4-6.8-2.78-13.19.14-.69.3-1.38.46-2.06a32.1 32.1 0 0 1-1.58-.5c-6.46-2.18-10.72-5.78-10.72-9.37 0-3.48 3.96-6.83 10.17-8.97.7-.23 1.42-.46 2.17-.67-.16-.64-.3-1.28-.44-1.92-1.28-6.5-.38-11.68 2.68-13.43 2.65-1.52 6.78-.41 11.15 2.7l-.1 3.02c-4.17-3.34-8-4.61-9.8-3.58-1.84 1.05-2.57 5.25-1.47 10.81.12.6.25 1.2.4 1.79 2.43-.55 5.07-.95 7.83-1.2.94-1.32 1.9-2.57 2.88-3.74l-.05 1.5a3.32 3.32 0 0 0-.48 3.6c-.12.31-.2.63-.26.95l-.71.05a69.47 69.47 0 0 0-5.34 9.14 68.76 68.76 0 0 0 5.37 9.16l.6.04-.14 4.78c-.62-.79-1.23-1.6-1.83-2.43-2.84-.23-5.5-.6-7.9-1.13-.16.64-.3 1.28-.43 1.92-1.05 5.46-.28 9.53 1.57 10.58.87.5 2.3.48 4.11-.15 1.34-.47 2.8-1.25 4.3-2.3zm-7-20.57a55.9 55.9 0 0 0-1.9 5.12c1.68.37 3.5.65 5.42.87a72.59 72.59 0 0 1-3.51-5.99zm-1.86-10.83c.5 1.62 1.13 3.3 1.86 5a75.5 75.5 0 0 1 3.45-5.9c-1.85.23-3.64.53-5.31.9zm.42 7.92a58.84 58.84 0 0 1-2.85-7.31c-.68.19-1.36.4-2.02.62-5.3 1.83-8.5 4.52-8.5 6.63 0 .99.74 2.21 2.2 3.44a21.34 21.34 0 0 0 6.83 3.59c.48.16.96.3 1.45.44a59.78 59.78 0 0 1 2.9-7.41zm10.38 1.97a4.01 4.01 0 0 1 2.75-3.81l.01-.48h-.66a.44.44 0 0 1-.43-.44v-.48c0-.24.2-.43.43-.43h.25V45.9c0-.53.25-1 .63-1.3l.06-1.39h-.3a.4.4 0 0 1 0-.78h.32l.94-26.43.9 26.43h.35a.4.4 0 0 1 0 .78h-.32l.06 1.36.1.1c.34.3.55.74.55 1.23v3.31h.25c.24 0 .44.2.44.44v.48c0 .24-.2.43-.44.43h-.69l.02.47a4.01 4.01 0 0 1 .27 7.54l.04.92h.36c.24 0 .44.2.44.43v.48c0 .24-.2.44-.44.44h-.31l.4 15.2a10.62 10.62 0 0 0-4 0l.41-15.2h-.29a.44.44 0 0 1-.43-.44v-.48c0-.24.2-.43.43-.43h.34l.03-.93a4.02 4.02 0 0 1-2.47-3.71zm18.68 5.96a52.07 52.07 0 0 0-1.97-5.09 79.4 79.4 0 0 1-3.5 6.01c1.94-.23 3.78-.54 5.47-.92zm-2-10.8a52.83 52.83 0 0 0 1.87-4.99c-1.67-.38-3.46-.7-5.32-.93a74.94 74.94 0 0 1 3.46 5.92zm17.19 2.82c0 3.64-4.38 7.19-11.09 9.39-.35.11-.72.23-1.09.33.13.53.25 1.04.35 1.55 1.33 6.61.3 12.05-2.84 13.85-2.34 1.34-5.8.63-9.55-1.7l-.08-3.06c3.6 2.62 6.78 3.54 8.38 2.62.87-.5 1.57-1.73 1.92-3.59.39-2.06.3-4.71-.28-7.63-.1-.46-.2-.93-.32-1.4-2.43.55-5.1.95-7.93 1.2-.64.92-1.29 1.8-1.94 2.64l-.14-4.96.68-.05a81.53 81.53 0 0 0 5.33-9.16 80.5 80.5 0 0 0-5.35-9.1l-.72-.04a4.56 4.56 0 0 0-.26-.94 3.3 3.3 0 0 0-.5-3.63l-.06-1.56a63.52 63.52 0 0 1 2.93 3.82c2.76.25 5.4.66 7.83 1.22.1-.38.18-.77.26-1.15 1.24-5.91.47-10.42-1.49-11.53-1.76-1.01-5.55.3-9.68 3.69l-.1-3.05c4.3-3.14 8.4-4.29 11.03-2.78 3.19 1.81 4.12 7.33 2.7 14.17l-.3 1.27c.64.18 1.27.37 1.89.59 6.33 2.15 10.41 5.52 10.42 9z"/></defs><g><g transform="translate(-135 -16)"><use fill="#fff" xlink:href="#6pena"/></g></g></svg>